<?xml version="1.0" encoding="UTF-8" standalone="no"?>
<!-- Created with Inkscape (http://www.inkscape.org/) -->

<svg
   xmlns:dc="http://purl.org/dc/elements/1.1/"
   xmlns:cc="http://creativecommons.org/ns#"
   xmlns:rdf="http://www.w3.org/1999/02/22-rdf-syntax-ns#"
   xmlns:svg="http://www.w3.org/2000/svg"
   xmlns="http://www.w3.org/2000/svg"
   xmlns:sodipodi="http://sodipodi.sourceforge.net/DTD/sodipodi-0.dtd"
   xmlns:inkscape="http://www.inkscape.org/namespaces/inkscape"
   width="210mm"
   height="297mm"
   viewBox="0 0 210 297"
   version="1.1"
   id="svg8"
   inkscape:version="0.92.3 (2405546, 2018-03-11)"
   sodipodi:docname="Recyclable product.svg">
  <defs
     id="defs2" />
  <sodipodi:namedview
     id="base"
     pagecolor="#ffffff"
     bordercolor="#666666"
     borderopacity="1.0"
     inkscape:pageopacity="0.0"
     inkscape:pageshadow="2"
     inkscape:zoom="0.35"
     inkscape:cx="301.71092"
     inkscape:cy="479.69973"
     inkscape:document-units="mm"
     inkscape:current-layer="layer1"
     showgrid="false"
     inkscape:window-width="1024"
     inkscape:window-height="703"
     inkscape:window-x="0"
     inkscape:window-y="0"
     inkscape:window-maximized="1" />
  <metadata
     id="metadata5">
    <rdf:RDF>
      <cc:Work
         rdf:about="">
        <dc:format>image/svg+xml</dc:format>
        <dc:type
           rdf:resource="http://purl.org/dc/dcmitype/StillImage" />
        <dc:title></dc:title>
      </cc:Work>
    </rdf:RDF>
  </metadata>
  <g
     inkscape:label="Capa 1"
     inkscape:groupmode="layer"
     id="layer1">
    <path
       style="fill:#000000;stroke-width:0.61226279"
       d="m 128.96583,240.72109 c -2.26439,-3.45373 -17.38594,-33.97596 -17.89177,-36.11378 -0.49257,-2.0818 0.8641,-4.55429 11.3438,-20.67359 4.26911,-6.56651 8.98211,-14.00054 10.47333,-16.52005 l 2.7113,-4.58094 0.16654,11.07528 0.16653,11.07527 6.56836,0.82107 c 8.97027,1.12132 22.92922,0.99759 30.14046,-0.26717 7.12557,-1.24972 10.69229,-2.37621 16.13465,-5.09584 2.30754,-1.15312 4.27922,-2.01001 4.38152,-1.90421 0.10229,0.1058 -3.54831,6.116 -8.11245,13.35601 -4.56414,7.24001 -10.81162,17.28405 -13.88329,22.32011 -3.8161,6.25656 -6.18311,9.50586 -7.47389,10.25971 -2.72967,1.59422 -7.12476,2.24587 -19.0571,2.82559 -5.8086,0.2822 -10.70999,0.662 -10.89199,0.844 -0.18199,0.182 -0.47221,2.77666 -0.64492,5.76593 -0.60285,10.43423 -1.15723,11.34846 -4.13108,6.81261 z M 74.98847,226.82132 c -6.20696,-0.3197 -7.90455,-0.63619 -10.9389,-2.03935 -10.59299,-4.89846 -19.10971,-21.01501 -17.11604,-32.3894 0.89327,-5.09635 3.04168,-10.67001 4.35251,-11.2918 0.57679,-0.2736 12.68936,-0.59337 26.91681,-0.71059 l 25.86811,-0.21314 v 23.61367 23.61367 l -10.86767,-0.10231 c -5.97721,-0.0563 -14.17388,-0.2726 -18.21482,-0.48075 z M 31.51782,189.6117 C 14.978919,159.67015 13.573379,156.31859 14.591749,149.25065 c 0.4413,-3.06281 1.75633,-6.67523 4.87057,-13.37955 l 4.266051,-9.18394 -1.31243,-1.3666 c -0.72184,-0.75162 -3.034321,-2.26697 -5.138851,-3.36744 -3.72687,-1.94879 -9.2616795,-5.90952 -9.3082095,-6.66098 -0.0128,-0.20586 0.59673,-0.27632 1.35441,-0.15657 0.7576705,0.11975 11.4337005,0.78041 23.7245005,1.46813 18.05253,1.01012 22.75455,1.45201 24.46816,2.29949 1.77561,0.87814 2.86343,2.44574 6.67627,9.62076 2.50526,4.71442 7.38961,13.66196 10.85411,19.88342 3.4645,6.22146 6.20536,11.40547 6.09082,11.52001 -0.33202,0.33202 -7.51473,-3.43006 -12.76002,-6.6833 -2.64688,-1.64164 -5.33173,-2.98481 -5.96633,-2.98481 -0.79354,0 -2.56773,2.15076 -5.68199,6.88796 -11.83126,17.99695 -14.89175,25.55596 -16.26767,40.1791 -0.32711,3.47647 -0.68231,6.40501 -0.78933,6.50786 -0.10702,0.10286 -3.77632,-6.29727 -8.15399,-14.22249 z m 133.8421,-14.09659 c -1.1203,-2.27302 -4.86654,-9.23919 -8.32497,-15.48037 -7.31596,-13.20259 -12.20779,-22.85597 -12.77838,-25.21641 -0.31848,-1.31751 -0.1135,-1.85085 0.98208,-2.55525 2.62471,-1.68756 38.58278,-21.80087 38.96345,-21.79438 0.3592,0.006 10.00797,17.31113 12.95239,23.23003 2.8163,5.66135 3.65425,9.1715 3.64736,15.2788 -0.0105,9.27053 -2.54815,15.54829 -8.47469,20.96481 -4.49746,4.11044 -9.40223,6.45944 -17.16404,8.22024 -3.57414,0.81082 -6.78371,1.47671 -7.13236,1.47976 -0.34865,0.003 -1.55053,-1.8542 -2.67084,-4.12723 z M 71.87933,117.42543 c -5.36161,-3.2594 -13.77698,-8.35979 -18.70082,-11.33422 -4.92385,-2.97442 -9.59413,-5.92765 -10.37842,-6.562726 l -1.42597,-1.15468 2.50982,-3.905072 c 1.38041,-2.14779 4.77098,-7.624568 7.53461,-12.170619 11.14708,-18.336468 15.8728,-22.041459 28.11391,-22.041459 6.98114,0 11.62183,1.189072 16.69371,4.277388 7.95178,4.841907 12.74289,9.616025 12.74289,12.697711 0,0.761352 -2.17114,5.036806 -4.82475,9.501011 -2.65361,4.464205 -8.52802,14.437246 -13.05424,22.162306 -4.52622,7.72506 -8.50689,14.13804 -8.84593,14.25105 -0.33904,0.11302 -5.00321,-2.4613 -10.36481,-5.72069 z m 64.02929,-3.26257 c -5.89303,-0.25229 -13.44521,-0.6732 -16.78263,-0.93536 l -6.06803,-0.47664 8.10561,-4.12217 c 4.45809,-2.2672 8.54483,-4.56139 9.08164,-5.0982 0.89318,-0.89318 0.65779,-1.61476 -2.77347,-8.502081 C 123.66292,87.383232 116.1416,74.335934 113.90178,71.488461 112.74018,70.011726 103.21221,61.390049 98.55387,57.600428 l -2.1362,-1.737832 8.87781,0.39571 c 27.41695,1.222054 43.42449,2.199915 45.42624,2.774975 2.84461,0.817195 8.07882,6.447161 14.1799,15.252036 2.42971,3.506458 4.86565,6.657976 5.41322,7.003373 0.76234,0.480868 2.60125,-0.125157 7.84922,-2.586751 3.7695,-1.768111 6.96406,-3.104324 7.09902,-2.969362 0.30914,0.309131 -16.51798,25.514243 -21.12503,31.642913 -1.88803,2.51161 -4.33805,5.09126 -5.44448,5.73254 -2.48674,1.4413 -7.90208,1.69201 -22.78495,1.05483 z"
       id="path1247"
       inkscape:connector-curvature="0" />
  </g>
</svg>
