<?xml version="1.0" encoding="UTF-8"?>
<svg xmlns="http://www.w3.org/2000/svg" viewBox="0 0 64 64" width="512" height="512"><g id="safe_money_box-safe_box-security_box-money-dollars" data-name="safe money box-safe box-security box-money-dollars"><path d="M46,28.051V5a3,3,0,0,0-3-3H5A3,3,0,0,0,2,5V43a3,3,0,0,0,3,3H28.051A16.989,16.989,0,1,0,46,28.051ZM4,43V5A1,1,0,0,1,5,4H43a1,1,0,0,1,1,1V28.051a16.853,16.853,0,0,0-2,.23V7a1,1,0,0,0-1-1H7A1,1,0,0,0,6,7V41a1,1,0,0,0,1,1H28.281a16.853,16.853,0,0,0-.23,2H5A1,1,0,0,1,4,43ZM40,28.753A17.069,17.069,0,0,0,28.753,40H8V8H40ZM45,60A15,15,0,1,1,60,45,15.017,15.017,0,0,1,45,60Z"/><path d="M45,40a1,1,0,0,1,1,1,1,1,0,0,0,1,1h4a1,1,0,0,0,1-1,7.012,7.012,0,0,0-4-6.32V33a1,1,0,0,0-1-1H43a1,1,0,0,0-1,1v1.669a6.947,6.947,0,0,0-3.844,4.836A7.006,7.006,0,0,0,45,48a1,1,0,1,1-1,1,1,1,0,0,0-1-1H39a1,1,0,0,0-1,1,7.011,7.011,0,0,0,4,6.319V57a1,1,0,0,0,1,1h4a1,1,0,0,0,1-1V55.319A7,7,0,0,0,45,42a1,1,0,0,1,0-2Zm0,4a5,5,0,0,1,1.666,9.708,1,1,0,0,0-.666.943V56H44V54.651a1,1,0,0,0-.666-.943A5.007,5.007,0,0,1,40.1,50h2.069A3,3,0,1,0,45,46a4.985,4.985,0,0,1-3.882-1.848,5.05,5.05,0,0,1-1-4.239,4.942,4.942,0,0,1,3.215-3.629A1,1,0,0,0,44,35.339V34h2v1.348a1,1,0,0,0,.667.943A5.007,5.007,0,0,1,49.9,40H47.829A3,3,0,1,0,45,44Z"/><path d="M24,34A10,10,0,1,0,14,24,10.011,10.011,0,0,0,24,34ZM19.171,17.637l.963,1.667,1.732-1L20.9,16.626a8,8,0,0,1,2.1-.557V18h2V16.069a8,8,0,0,1,2.1.557L26.134,18.3l1.732,1,.963-1.667a8.075,8.075,0,0,1,1.534,1.534l-1.667.963,1,1.732,1.678-.968a8,8,0,0,1,.557,2.1H30v2h1.931a8,8,0,0,1-.557,2.1L29.7,26.134l-1,1.732,1.667.963a8.075,8.075,0,0,1-1.534,1.534L27.866,28.7l-1.732,1,.968,1.678a8,8,0,0,1-2.1.557V30H23v1.931a8,8,0,0,1-2.1-.557l.968-1.678-1.732-1-.963,1.667a8.075,8.075,0,0,1-1.534-1.534l1.667-.963-1-1.732-1.678.968a8,8,0,0,1-.557-2.1H18V23H16.069a8,8,0,0,1,.557-2.1l1.678.968,1-1.732-1.667-.963A8.075,8.075,0,0,1,19.171,17.637Z"/><path d="M24,28a4,4,0,1,0-4-4A4,4,0,0,0,24,28Zm0-6a2,2,0,1,1-2,2A2,2,0,0,1,24,22Z"/><rect x="36" y="10" width="2" height="2"/><rect x="10" y="10" width="2" height="2"/><rect x="10" y="36" width="2" height="2"/></g></svg>
